<svg width="24" height="24" viewBox="0 0 24 24" fill="none" xmlns="http://www.w3.org/2000/svg">
	<path d="M14.0737 5.2052C14.7635 4.34238 15.2316 3.18386 15.1081 2C14.0983 2.05021 12.8661 2.6662 12.1526 3.5297C11.5121 4.26915 10.9451 5.47617 11.0929 6.61041C12.2265 6.70873 13.359 6.04381 14.0737 5.2052Z" fill="currentColor"/>
	<path d="M15.0953 6.83189C13.4491 6.73383 12.0494 7.76618 11.2632 7.76618C10.4767 7.76618 9.27282 6.8813 7.97076 6.90515C6.27605 6.93004 4.70356 7.88824 3.84357 9.41223C2.07471 12.461 3.37676 16.9833 5.09688 19.4663C5.93221 20.6947 6.93893 22.0473 8.26543 21.9987C9.51875 21.9496 10.01 21.1872 11.5335 21.1872C13.0558 21.1872 13.4983 21.9987 14.825 21.9742C16.2009 21.9496 17.061 20.7451 17.8963 19.5155C18.8546 18.1151 19.2469 16.763 19.2716 16.6888C19.2469 16.6642 16.6186 15.6559 16.5942 12.6325C16.5694 10.101 18.6577 8.89684 18.756 8.82217C17.5767 7.07797 15.7341 6.8813 15.0953 6.83189Z" fill="currentColor"/>
</svg>
