<svg width="10" height="10" viewBox="0 0 10 10" fill="none" xmlns="http://www.w3.org/2000/svg">
	<path d="M5,10 C2.19419924,10 0,7.84634761 0,5 C0,2.14105793 2.19419924,0 5,0 C7.8184111,0 10,2.14105793 10,5 C10,7.84634761 7.8184111,10 5,10 Z M5,9.11838791 C7.31399748,9.11838791 9.110971,7.35516373 9.110971,5 C9.110971,2.63224181 7.31399748,0.881612091 5,0.881612091 C2.69861286,0.881612091 0.889029004,2.63224181 0.889029004,5 C0.889029004,7.35516373 2.69861286,9.11838791 5,9.11838791 Z M7.38335435,4.10579345 L6.50693569,4.10579345 C6.36822194,3.56423174 5.87641866,3.12342569 5.10718789,3.12342569 C4.14249685,3.12342569 3.51197982,3.82871537 3.51197982,4.98740554 C3.51197982,6.16498741 4.14880202,6.87657431 5.10718789,6.87657431 C5.8259773,6.87657431 6.34930643,6.54282116 6.50693569,5.9256927 L7.38335435,5.9256927 C7.23203026,6.92695214 6.40605296,7.65743073 5.11349306,7.65743073 C3.60025221,7.65743073 2.61664565,6.6372796 2.61664565,4.98740554 C2.61664565,3.36901763 3.59394704,2.34256927 5.10718789,2.34256927 C6.41235813,2.34256927 7.23203026,3.13602015 7.38335435,4.10579345 Z" fill="currentColor"/>
</svg>
