<svg width="24" height="24" viewBox="0 0 24 24" fill="none" xmlns="http://www.w3.org/2000/svg">
	<path d="M8.8749 17.1249C8.7249 16.9749 8.6499 16.7999 8.6499 16.5999C8.6499 16.3999 8.7249 16.2249 8.8749 16.0749L12.9499 11.9999L8.8749 7.9249C8.7249 7.7749 8.6499 7.5999 8.6499 7.3999C8.6499 7.1999 8.7249 7.0249 8.8749 6.8749C9.0249 6.7249 9.1999 6.6499 9.3999 6.6499C9.5999 6.6499 9.7749 6.7249 9.9249 6.8749L14.4249 11.3749C14.5082 11.4582 14.5709 11.5539 14.6129 11.6619C14.6542 11.7706 14.6749 11.8832 14.6749 11.9999C14.6749 12.1166 14.6542 12.2289 14.6129 12.3369C14.5709 12.4456 14.5082 12.5416 14.4249 12.6249L9.9249 17.1249C9.7749 17.2749 9.5999 17.3499 9.3999 17.3499C9.1999 17.3499 9.0249 17.2749 8.8749 17.1249Z" fill="currentColor"/>
</svg>
