<svg width="24" height="24" viewBox="0 0 24 24" fill="none" xmlns="http://www.w3.org/2000/svg">
	<path d="M13.4751 17.1249L8.9751 12.6249C8.89176 12.5416 8.8291 12.4456 8.7871 12.3369C8.74576 12.2289 8.7251 12.1166 8.7251 11.9999C8.7251 11.8832 8.74576 11.7706 8.7871 11.6619C8.8291 11.5539 8.89176 11.4582 8.9751 11.3749L13.4751 6.8749C13.6251 6.7249 13.8001 6.6499 14.0001 6.6499C14.2001 6.6499 14.3751 6.7249 14.5251 6.8749C14.6751 7.0249 14.7501 7.1999 14.7501 7.3999C14.7501 7.5999 14.6751 7.7749 14.5251 7.9249L10.4501 11.9999L14.5251 16.0749C14.6751 16.2249 14.7501 16.3999 14.7501 16.5999C14.7501 16.7999 14.6751 16.9749 14.5251 17.1249C14.3751 17.2749 14.2001 17.3499 14.0001 17.3499C13.8001 17.3499 13.6251 17.2749 13.4751 17.1249Z" fill="currentColor"/>
</svg>
