<svg width="24" height="24" viewBox="0 0 24 24" fill="none" xmlns="http://www.w3.org/2000/svg">
	<path d="M6.8749 14.5C6.7249 14.3666 6.6499 14.1956 6.6499 13.987C6.6499 13.779 6.7249 13.6 6.8749 13.45L11.3749 8.97495C11.4582 8.87495 11.5542 8.80395 11.6629 8.76195C11.7709 8.72062 11.8832 8.69995 11.9999 8.69995C12.1166 8.69995 12.2292 8.72062 12.3379 8.76195C12.4459 8.80395 12.5416 8.87495 12.6249 8.97495L17.1499 13.475C17.2832 13.625 17.3499 13.7956 17.3499 13.987C17.3499 14.179 17.2749 14.35 17.1249 14.5C16.9749 14.65 16.7999 14.725 16.5999 14.725C16.3999 14.725 16.2249 14.65 16.0749 14.5L11.9999 10.45L7.8999 14.525C7.76657 14.675 7.5999 14.75 7.3999 14.75C7.1999 14.75 7.0249 14.6666 6.8749 14.5Z" fill="currentColor"/>
</svg>
