<svg width="24" height="24" viewBox="0 0 24 24" fill="none" xmlns="http://www.w3.org/2000/svg">
	<path d="M11.9999 14.6501C11.8832 14.6501 11.7709 14.6334 11.6629 14.6001C11.5542 14.5667 11.4582 14.5001 11.3749 14.4001L6.8499 9.90008C6.71657 9.75008 6.6499 9.57508 6.6499 9.37508C6.6499 9.17508 6.7249 9.00008 6.8749 8.85008C7.0249 8.71675 7.1999 8.65008 7.3999 8.65008C7.5999 8.65008 7.7749 8.71675 7.9249 8.85008L11.9999 12.9251L16.0999 8.85008C16.2332 8.70008 16.3999 8.62908 16.5999 8.63708C16.7999 8.64575 16.9749 8.71675 17.1249 8.85008C17.2749 9.00008 17.3499 9.17908 17.3499 9.38708C17.3499 9.59575 17.2749 9.76675 17.1249 9.90008L12.6249 14.4001C12.5416 14.5001 12.4459 14.5667 12.3379 14.6001C12.2292 14.6334 12.1166 14.6501 11.9999 14.6501Z" fill="currentColor"/>
</svg>
