<svg width="24" height="24" viewBox="0 0 24 24" fill="none" xmlns="http://www.w3.org/2000/svg">
	<path d="M10.775 19.25L9.35 17.925C7.56667 16.3083 5.97933 14.7207 4.588 13.162C3.196 11.604 2.5 9.93333 2.5 8.15C2.5 6.73333 2.97933 5.54567 3.938 4.587C4.896 3.629 6.08333 3.15 7.5 3.15C8.3 3.15 9.096 3.33733 9.888 3.712C10.6793 4.08733 11.3833 4.69167 12 5.525C12.6167 4.69167 13.321 4.08733 14.113 3.712C14.9043 3.33733 15.7 3.15 16.5 3.15C17.9167 3.15 19.104 3.629 20.062 4.587C21.0207 5.54567 21.5 6.73333 21.5 8.15C21.5 9.95 20.7917 11.6373 19.375 13.212C17.9583 14.7873 16.375 16.3667 14.625 17.95L13.225 19.225C12.875 19.5583 12.4667 19.725 12 19.725C11.5333 19.725 11.125 19.5667 10.775 19.25ZM11.275 7.05C10.7417 6.21667 10.175 5.60833 9.575 5.225C8.975 4.84167 8.28333 4.65 7.5 4.65C6.5 4.65 5.66667 4.98333 5 5.65C4.33333 6.31667 4 7.15 4 8.15C4 8.95 4.25833 9.78733 4.775 10.662C5.29167 11.5373 5.94167 12.4083 6.725 13.275C7.50833 14.1417 8.354 14.9873 9.262 15.812C10.1707 16.6373 11.0167 17.4083 11.8 18.125C11.85 18.175 11.9167 18.2 12 18.2C12.0833 18.2 12.15 18.175 12.2 18.125C12.9833 17.4083 13.8293 16.6373 14.738 15.812C15.646 14.9873 16.4917 14.1417 17.275 13.275C18.0583 12.4083 18.7083 11.5373 19.225 10.662C19.7417 9.78733 20 8.95 20 8.15C20 7.15 19.6667 6.31667 19 5.65C18.3333 4.98333 17.5 4.65 16.5 4.65C15.7167 4.65 15.025 4.84167 14.425 5.225C13.825 5.60833 13.2583 6.21667 12.725 7.05C12.6417 7.16667 12.5333 7.25833 12.4 7.325C12.2667 7.39167 12.1333 7.425 12 7.425C11.8667 7.425 11.7333 7.39167 11.6 7.325C11.4667 7.25833 11.3583 7.16667 11.275 7.05Z" fill="currentColor"/>
</svg>
