<svg width="24" height="24" viewBox="0 0 24 24" fill="none" xmlns="http://www.w3.org/2000/svg">
	<path d="M8,16 C9.1,16 10,15.1 10,14 C10,12.9 9.1,12 8,12 C6.9,12 6,12.9 6,14 C6,15.1 6.9,16 8,16 Z M14,7 L13,7 L13,5 C13,2.24 10.76,0 8,0 C5.24,0 3,2.24 3,5 L3,7 L2,7 C0.9,7 0,7.9 0,9 L0,19 C0,20.1 0.9,21 2,21 L14,21 C15.1,21 16,20.1 16,19 L16,9 C16,7.9 15.1,7 14,7 Z M4.9,5 C4.9,3.29 6.29,1.9 8,1.9 C9.71,1.9 11.1,3.29 11.1,5 L11.1,7 L4.9,7 L4.9,5 Z M14,19.5 L2,19.5 C1.72385763,19.5 1.5,19.2761424 1.5,19 L1.5,9 C1.5,8.72385763 1.72385763,8.5 2,8.5 L14,8.5 C14.2761424,8.5 14.5,8.72385763 14.5,9 L14.5,19 C14.5,19.2761424 14.2761424,19.5 14,19.5 Z" fill="currentColor" transform="translate(4, 1.5)"/>
</svg>
