<svg width="24" height="24" viewBox="0 0 24 24" fill="none" xmlns="http://www.w3.org/2000/svg">
	<path d="M5.09995 7.2251C4.89995 6.9751 4.74162 6.7041 4.62495 6.4121C4.50828 6.12076 4.44995 5.80843 4.44995 5.4751C4.44995 4.70843 4.71662 4.05843 5.24995 3.5251C5.78328 2.99176 6.43328 2.7251 7.19995 2.7251C7.94995 2.7251 8.59595 2.99176 9.13795 3.5251C9.67928 4.05843 9.94995 4.70843 9.94995 5.4751C9.94995 5.80843 9.89162 6.12076 9.77495 6.4121C9.65828 6.7041 9.49162 6.9751 9.27495 7.2251H5.09995ZM10.1 21.2751C9.09995 21.2751 8.24162 20.9168 7.52495 20.2001C6.80828 19.4834 6.44995 18.6251 6.44995 17.6251H5.97495C5.85828 17.6251 5.75828 17.5834 5.67495 17.5001C5.59162 17.4168 5.54162 17.3168 5.52495 17.2001L4.69995 9.2751C4.66662 8.99176 4.74162 8.7541 4.92495 8.5621C5.10828 8.37076 5.33328 8.2751 5.59995 8.2751H8.77495C9.04162 8.2751 9.26662 8.37076 9.44995 8.5621C9.63328 8.7541 9.70828 8.99176 9.67495 9.2751L8.87495 17.2001C8.85828 17.3168 8.80829 17.4168 8.72495 17.5001C8.64162 17.5834 8.54162 17.6251 8.42495 17.6251H7.94995C7.94995 18.2084 8.15828 18.7124 8.57495 19.1371C8.99162 19.5624 9.49995 19.7751 10.1 19.7751C10.6833 19.7751 11.1876 19.5624 11.613 19.1371C12.0376 18.7124 12.25 18.2084 12.25 17.6251V6.3751C12.25 5.3751 12.6083 4.51676 13.325 3.8001C14.0416 3.08343 14.9 2.7251 15.9 2.7251C16.9 2.7251 17.7583 3.08343 18.475 3.8001C19.1916 4.51676 19.55 5.3751 19.55 6.3751V20.5251C19.55 20.7418 19.479 20.9208 19.337 21.0621C19.1956 21.2041 19.0166 21.2751 18.8 21.2751C18.6 21.2751 18.425 21.2041 18.275 21.0621C18.125 20.9208 18.05 20.7418 18.05 20.5251V6.3751C18.05 5.79176 17.8416 5.28743 17.425 4.8621C17.0083 4.43743 16.5 4.2251 15.9 4.2251C15.3166 4.2251 14.8123 4.43743 14.387 4.8621C13.9623 5.28743 13.75 5.79176 13.75 6.3751V17.6251C13.75 18.6251 13.3916 19.4834 12.675 20.2001C11.9583 20.9168 11.1 21.2751 10.1 21.2751ZM6.89995 16.1251H7.47495L8.09995 9.7751H6.27495L6.89995 16.1251Z" fill="currentColor"/>
</svg>
