<svg width="24" height="25" viewBox="0 0 24 25" fill="none" xmlns="http://www.w3.org/2000/svg">
<path d="M6.23079 14.1163C5.8183 14.1163 5.46518 13.9694 5.17143 13.6757C4.8777 13.3819 4.73083 13.0288 4.73083 12.6163C4.73083 12.2038 4.8777 11.8507 5.17143 11.557C5.46518 11.2632 5.8183 11.1163 6.23079 11.1163C6.64329 11.1163 6.9964 11.2632 7.29014 11.557C7.58389 11.8507 7.73076 12.2038 7.73076 12.6163C7.73076 13.0288 7.58389 13.3819 7.29014 13.6757C6.9964 13.9694 6.64329 14.1163 6.23079 14.1163ZM12 14.1163C11.5875 14.1163 11.2344 13.9694 10.9407 13.6757C10.6469 13.3819 10.5 13.0288 10.5 12.6163C10.5 12.2038 10.6469 11.8507 10.9407 11.557C11.2344 11.2632 11.5875 11.1163 12 11.1163C12.4125 11.1163 12.7656 11.2632 13.0594 11.557C13.3531 11.8507 13.5 12.2038 13.5 12.6163C13.5 13.0288 13.3531 13.3819 13.0594 13.6757C12.7656 13.9694 12.4125 14.1163 12 14.1163ZM17.7692 14.1163C17.3567 14.1163 17.0036 13.9694 16.7099 13.6757C16.4161 13.3819 16.2693 13.0288 16.2693 12.6163C16.2693 12.2038 16.4161 11.8507 16.7099 11.557C17.0036 11.2632 17.3567 11.1163 17.7692 11.1163C18.1817 11.1163 18.5348 11.2632 18.8286 11.557C19.1223 11.8507 19.2692 12.2038 19.2692 12.6163C19.2692 13.0288 19.1223 13.3819 18.8286 13.6757C18.5348 13.9694 18.1817 14.1163 17.7692 14.1163Z" fill="currentColor"/>
</svg>
