<svg width="10" height="10" viewBox="0 0 10 10" fill="none" xmlns="http://www.w3.org/2000/svg">
	<path d="M5,31 C7.8184111,31 10,33.1410579 10,36 C10,38.8463476 7.8184111,41 5,41 C2.19419924,41 0,38.8463476 0,36 C0,33.1410579 2.19419924,31 5,31 Z M5,31.8816121 C2.69861286,31.8816121 0.889029004,33.6322418 0.889029004,36 C0.889029004,38.3551637 2.69861286,40.1183879 5,40.1183879 C7.31399748,40.1183879 9.110971,38.3551637 9.110971,36 C9.110971,33.6322418 7.31399748,31.8816121 5,31.8816121 Z M4.37542785,38.5459564 L3.37140455,38.5459564 L3.37140455,33.6949844 L5.60139314,33.6949844 C6.57371044,33.6949844 7.27124242,34.3202208 7.27124242,35.1718359 C7.27124242,36.1312503 6.59484778,36.7457068 5.52741248,36.7457068 L4.37542785,36.7457068 L4.37542785,38.5459564 Z M4.37542785,34.5573794 L4.37542785,35.9587713 L5.40058848,35.9587713 C5.8973158,35.9587713 6.19323846,35.6892729 6.19323846,35.2257356 C6.19323846,34.7837581 5.9290218,34.5573794 5.43229448,34.5573794 L4.37542785,34.5573794 Z" fill="currentColor" transform="translate(0, -31)"/>
</svg>
