<svg width="24" height="24" viewBox="0 0 24 24" fill="none" xmlns="http://www.w3.org/2000/svg">
	<path d="M14.35 17.7C14.1667 17.7 14.0044 17.629 13.863 17.487C13.721 17.3457 13.65 17.1834 13.65 17V7.00005C13.65 6.81672 13.721 6.65405 13.863 6.51205C14.0044 6.37072 14.1667 6.30005 14.35 6.30005H17C17.1834 6.30005 17.346 6.37072 17.488 6.51205C17.6294 6.65405 17.7 6.81672 17.7 7.00005V17C17.7 17.1834 17.6294 17.3457 17.488 17.487C17.346 17.629 17.1834 17.7 17 17.7H14.35ZM7.00005 17.7C6.81672 17.7 6.65438 17.629 6.51305 17.487C6.37105 17.3457 6.30005 17.1834 6.30005 17V7.00005C6.30005 6.81672 6.37105 6.65405 6.51305 6.51205C6.65438 6.37072 6.81672 6.30005 7.00005 6.30005H9.65005C9.83338 6.30005 9.99605 6.37072 10.138 6.51205C10.2794 6.65405 10.35 6.81672 10.35 7.00005V17C10.35 17.1834 10.2794 17.3457 10.138 17.487C9.99605 17.629 9.83338 17.7 9.65005 17.7H7.00005Z" fill="currentColor"/>
</svg>
