<svg width="24" height="24" viewBox="0 0 24 24" fill="none" xmlns="http://www.w3.org/2000/svg">
	<path d="M18 15L18 18C18 19.1046 17.1046 20 16 20L6 20C4.89543 20 4 19.1046 4 18L4 8C4 6.89543 4.89543 6 6 6L8.5 6" stroke="currentColor" stroke-width="1.5" stroke-linecap="round"/>
	<path d="M15.2143 9.25C14.8001 9.25 14.4643 9.58579 14.4643 10C14.4643 10.4142 14.8001 10.75 15.2143 10.75V9.25ZM21 10.75C21.4142 10.75 21.75 10.4142 21.75 10C21.75 9.58579 21.4142 9.25 21 9.25V10.75ZM15.2143 6.25C14.8001 6.25 14.4643 6.58579 14.4643 7C14.4643 7.41421 14.8001 7.75 15.2143 7.75V6.25ZM21 7.75C21.4142 7.75 21.75 7.41421 21.75 7C21.75 6.58579 21.4142 6.25 21 6.25V7.75ZM15.2143 3.25C14.8001 3.25 14.4643 3.58579 14.4643 4C14.4643 4.41421 14.8001 4.75 15.2143 4.75V3.25ZM21 4.75C21.4142 4.75 21.75 4.41421 21.75 4C21.75 3.58579 21.4142 3.25 21 3.25V4.75ZM12 3.25C11.5858 3.25 11.25 3.58579 11.25 4C11.25 4.41421 11.5858 4.75 12 4.75V3.25ZM12.6429 4.75C13.0571 4.75 13.3929 4.41421 13.3929 4C13.3929 3.58579 13.0571 3.25 12.6429 3.25V4.75ZM12 6.25C11.5858 6.25 11.25 6.58579 11.25 7C11.25 7.41421 11.5858 7.75 12 7.75V6.25ZM12.6429 7.75C13.0571 7.75 13.3929 7.41421 13.3929 7C13.3929 6.58579 13.0571 6.25 12.6429 6.25V7.75ZM12 9.25C11.5858 9.25 11.25 9.58579 11.25 10C11.25 10.4142 11.5858 10.75 12 10.75V9.25ZM12.6429 10.75C13.0571 10.75 13.3929 10.4142 13.3929 10C13.3929 9.58579 13.0571 9.25 12.6429 9.25V10.75ZM15.2143 10.75H21V9.25H15.2143V10.75ZM15.2143 7.75H21V6.25H15.2143V7.75ZM15.2143 4.75H21V3.25H15.2143V4.75ZM12 4.75H12.6429V3.25H12V4.75ZM12 7.75H12.6429V6.25H12V7.75ZM12 10.75H12.6429V9.25H12V10.75Z" fill="currentColor"/>
</svg>
