<svg width="24" height="24" viewBox="0 0 24 24" fill="none" xmlns="http://www.w3.org/2000/svg">
	<path d="M3.1128 9.68695C3.2641 8.85484 3.98883 8.25 4.83458 8.25H19.1654C20.0112 8.25 20.7359 8.85484 20.8872 9.68695L22.5236 18.687C22.7189 19.7612 21.8936 20.75 20.8018 20.75H3.19821C2.10638 20.75 1.28113 19.7612 1.47644 18.6869L3.1128 9.68695ZM4.83458 9.75C4.71375 9.75 4.61022 9.83641 4.58861 9.95528L2.95224 18.9553C2.92434 19.1087 3.04224 19.25 3.19821 19.25H20.8018C20.9578 19.25 21.0757 19.1087 21.0478 18.9553L19.4114 9.95528C19.3898 9.83641 19.2862 9.75 19.1654 9.75H4.83458Z" fill="currentColor"/>
	<path d="M16 12C16 7.38461 16 2 12 2C8 2 8 7.38461 8 12" stroke="currentColor" stroke-width="1.5"/>
</svg>
