<svg width="24" height="25" viewBox="0 0 24 25" fill="none" xmlns="http://www.w3.org/2000/svg">
<path d="M16 19.762C15.2333 19.762 14.5833 19.4953 14.05 18.962C13.5167 18.4286 13.25 17.7786 13.25 17.012C13.25 16.2453 13.5167 15.5953 14.05 15.062C14.5833 14.5286 15.2333 14.262 16 14.262C16.2167 14.262 16.429 14.291 16.637 14.349C16.8457 14.4076 17.05 14.512 17.25 14.662V7.01196C17.25 6.7953 17.3207 6.6163 17.462 6.47496C17.604 6.33296 17.7833 6.26196 18 6.26196H20.875C21.1083 6.26196 21.3127 6.3453 21.488 6.51196C21.6627 6.67863 21.75 6.88696 21.75 7.13696C21.75 7.38696 21.6627 7.5993 21.488 7.77396C21.3127 7.9493 21.1083 8.03696 20.875 8.03696H18.75V17.012C18.75 17.7786 18.4833 18.4286 17.95 18.962C17.4167 19.4953 16.7667 19.762 16 19.762ZM4 7.76196C3.78333 7.76196 3.60433 7.69096 3.463 7.54896C3.321 7.40763 3.25 7.22863 3.25 7.01196C3.25 6.7953 3.321 6.6163 3.463 6.47496C3.60433 6.33296 3.78333 6.26196 4 6.26196H14C14.2167 6.26196 14.396 6.33296 14.538 6.47496C14.6793 6.6163 14.75 6.7953 14.75 7.01196C14.75 7.22863 14.6793 7.40763 14.538 7.54896C14.396 7.69096 14.2167 7.76196 14 7.76196H4ZM4 11.762C3.78333 11.762 3.60433 11.691 3.463 11.549C3.321 11.4076 3.25 11.2286 3.25 11.012C3.25 10.7953 3.321 10.616 3.463 10.474C3.60433 10.3326 3.78333 10.262 4 10.262H14C14.2167 10.262 14.396 10.3326 14.538 10.474C14.6793 10.616 14.75 10.7953 14.75 11.012C14.75 11.2286 14.6793 11.4076 14.538 11.549C14.396 11.691 14.2167 11.762 14 11.762H4ZM4 15.762C3.78333 15.762 3.60433 15.691 3.463 15.549C3.321 15.4076 3.25 15.2286 3.25 15.012C3.25 14.7953 3.321 14.616 3.463 14.474C3.60433 14.3326 3.78333 14.262 4 14.262H10C10.2167 14.262 10.396 14.3326 10.538 14.474C10.6793 14.616 10.75 14.7953 10.75 15.012C10.75 15.2286 10.6793 15.4076 10.538 15.549C10.396 15.691 10.2167 15.762 10 15.762H4Z" fill="currentColor"/>
</svg>
