<svg width="24" height="25" viewBox="0 0 24 25" fill="none" xmlns="http://www.w3.org/2000/svg">
<path d="M15.2521 18.4206L18.2974 16.4643C18.4471 16.3693 18.522 16.2373 18.522 16.0684C18.522 15.8994 18.4471 15.767 18.2974 15.6711L15.2521 13.7148C15.0952 13.6072 14.9343 13.5986 14.7694 13.6889C14.6044 13.7793 14.522 13.9201 14.522 14.1114V18.024C14.522 18.2153 14.6044 18.3562 14.7694 18.4465C14.9343 18.5368 15.0952 18.5282 15.2521 18.4206Z" fill="currentColor"/>
<path d="M9.4712 9.44608C8.63273 10.2845 7.95388 11.2467 7.43465 12.3326C6.91542 13.4185 6.60516 14.5801 6.50387 15.8173C6.48337 16.0365 6.40125 16.2262 6.2575 16.3865C6.11375 16.5467 5.93563 16.6269 5.72315 16.6269C5.50392 16.6269 5.32411 16.5426 5.18372 16.374C5.04334 16.2054 4.98341 16.0115 5.00392 15.7923C5.11161 14.3423 5.46481 12.9865 6.06352 11.725C6.66224 10.4634 7.44173 9.3525 8.402 8.39225C9.36225 7.432 10.4715 6.65412 11.7299 6.0586C12.9882 5.46309 14.3424 5.11149 15.7924 5.0038C16.0116 4.98329 16.2055 5.04322 16.3741 5.1836C16.5427 5.32399 16.627 5.50219 16.627 5.7182C16.627 5.93422 16.5469 6.11403 16.3866 6.25763C16.2264 6.40121 16.0366 6.48325 15.8174 6.50375C14.5802 6.60504 13.4228 6.91113 12.3452 7.42203C11.2677 7.93293 10.3097 8.60761 9.4712 9.44608ZM12.3443 12.3288C11.8789 12.7942 11.493 13.3285 11.1866 13.9317C10.8802 14.5349 10.6866 15.182 10.6058 15.873C10.5683 16.0921 10.4777 16.2725 10.3339 16.4142C10.1902 16.556 10.0121 16.6269 9.79957 16.6269C9.58709 16.6269 9.41162 16.5467 9.27315 16.3865C9.1347 16.2262 9.07572 16.0397 9.09622 15.8269C9.18726 14.9333 9.4222 14.1022 9.80105 13.3336C10.1799 12.565 10.6712 11.8788 11.2751 11.275C11.8789 10.6711 12.5651 10.1798 13.3337 9.80093C14.1023 9.42208 14.9334 9.18714 15.827 9.0961C16.0398 9.0756 16.2264 9.13435 16.3866 9.27235C16.5469 9.41035 16.627 9.58599 16.627 9.79925C16.627 10.0125 16.5561 10.1909 16.4144 10.3344C16.2726 10.4778 16.0922 10.5683 15.8731 10.6057C15.1821 10.6865 14.5376 10.8775 13.9395 11.1788C13.3414 11.4801 12.8097 11.8634 12.3443 12.3288Z" fill="currentColor"/>
</svg>
