<svg width="24" height="24" viewBox="0 0 24 24" fill="none" xmlns="http://www.w3.org/2000/svg">
	<path d="M6.875 17.3C6.65833 17.3 6.47933 17.229 6.338 17.087C6.196 16.9456 6.125 16.7666 6.125 16.55V7.44995C6.125 7.23328 6.196 7.05395 6.338 6.91195C6.47933 6.77062 6.65833 6.69995 6.875 6.69995C7.075 6.69995 7.25 6.77062 7.4 6.91195C7.55 7.05395 7.625 7.23328 7.625 7.44995V16.55C7.625 16.7666 7.55 16.9456 7.4 17.087C7.25 17.229 7.075 17.3 6.875 17.3ZM16.475 16.375L11.05 12.75C10.7833 12.5666 10.65 12.3166 10.65 12C10.65 11.6833 10.7833 11.4333 11.05 11.25L16.475 7.62495C16.775 7.42495 17.0833 7.41228 17.4 7.58695C17.7167 7.76228 17.875 8.02495 17.875 8.37495V15.625C17.875 15.975 17.7167 16.2416 17.4 16.425C17.0833 16.6083 16.775 16.5916 16.475 16.375Z" fill="currentColor"/>
</svg>
