<svg width="24" height="24" viewBox="0 0 24 24" fill="none" xmlns="http://www.w3.org/2000/svg">
	<path d="M17.125 17.3C16.925 17.3 16.75 17.229 16.6 17.087C16.45 16.9456 16.375 16.7666 16.375 16.55V7.44995C16.375 7.23328 16.45 7.05395 16.6 6.91195C16.75 6.77062 16.925 6.69995 17.125 6.69995C17.3417 6.69995 17.521 6.77062 17.663 6.91195C17.8043 7.05395 17.875 7.23328 17.875 7.44995V16.55C17.875 16.7666 17.8043 16.9456 17.663 17.087C17.521 17.229 17.3417 17.3 17.125 17.3ZM7.525 16.375C7.225 16.5916 6.91667 16.6083 6.6 16.425C6.28333 16.2416 6.125 15.975 6.125 15.625V8.37495C6.125 8.02495 6.28333 7.76228 6.6 7.58695C6.91667 7.41228 7.225 7.42495 7.525 7.62495L12.95 11.25C13.2167 11.4333 13.35 11.6833 13.35 12C13.35 12.3166 13.2167 12.5666 12.95 12.75L7.525 16.375Z" fill="currentColor"/>
</svg>
