<svg width="24" height="24" viewBox="0 0 24 24" fill="none" xmlns="http://www.w3.org/2000/svg">
	<path d="M15.0499 19.7748C14.7999 19.8748 14.5709 19.8415 14.3629 19.6748C14.1542 19.5082 14.0499 19.2832 14.0499 18.9998C14.0499 18.8665 14.0876 18.7498 14.1629 18.6498C14.2376 18.5498 14.3416 18.4665 14.4749 18.3998C15.7916 17.8665 16.8499 17.0208 17.6499 15.8628C18.4499 14.7042 18.8499 13.4082 18.8499 11.9748C18.8499 10.5415 18.4499 9.24551 17.6499 8.08684C16.8499 6.92884 15.7916 6.08317 14.4749 5.54984C14.3249 5.48317 14.2166 5.39551 14.1499 5.28684C14.0832 5.17884 14.0499 5.05817 14.0499 4.92484C14.0499 4.64151 14.1542 4.42051 14.3629 4.26184C14.5709 4.10384 14.7999 4.07484 15.0499 4.17484C16.6499 4.84151 17.9332 5.87484 18.8999 7.27484C19.8666 8.67484 20.3499 10.2415 20.3499 11.9748C20.3499 13.7082 19.8666 15.2748 18.8999 16.6748C17.9332 18.0748 16.6499 19.1082 15.0499 19.7748ZM4.5499 14.4998C4.2999 14.4998 4.08757 14.4125 3.9129 14.2378C3.73757 14.0625 3.6499 13.8498 3.6499 13.5998V10.3998C3.6499 10.1498 3.73757 9.93717 3.9129 9.76184C4.08757 9.58717 4.2999 9.49984 4.5499 9.49984H7.3749L10.1249 6.74984C10.4082 6.46651 10.7332 6.40384 11.0999 6.56184C11.4666 6.7205 11.6499 6.99984 11.6499 7.39984V16.5998C11.6499 16.9998 11.4666 17.2792 11.0999 17.4378C10.7332 17.5958 10.4082 17.5332 10.1249 17.2498L7.3749 14.4998H4.5499ZM14.0499 15.6498V8.29984C14.6832 8.64984 15.1916 9.15817 15.5749 9.82484C15.9582 10.4915 16.1499 11.2165 16.1499 11.9998C16.1499 12.7832 15.9582 13.4998 15.5749 14.1498C15.1916 14.7998 14.6832 15.2998 14.0499 15.6498ZM10.1499 8.84984L7.9999 10.9998H5.1499V12.9998H7.9999L10.1499 15.1498V8.84984Z" fill="currentColor"/>
</svg>
