<svg width="24" height="24" viewBox="0 0 24 24" fill="none" xmlns="http://www.w3.org/2000/svg">
	<path d="M18.9499 21.5998L16.4499 19.1248C16.2499 19.2415 16.0459 19.3538 15.8379 19.4618C15.6292 19.5705 15.4166 19.6748 15.1999 19.7748C14.9499 19.8748 14.7166 19.8415 14.4999 19.6748C14.2832 19.5081 14.1749 19.2831 14.1749 18.9998C14.1749 18.8665 14.2166 18.7498 14.2999 18.6498C14.3832 18.5498 14.4832 18.4665 14.5999 18.3998C14.7332 18.3498 14.8666 18.2955 14.9999 18.2368C15.1332 18.1788 15.2582 18.1165 15.3749 18.0498L11.7999 14.4498V16.5998C11.7999 16.9998 11.6126 17.2791 11.2379 17.4378C10.8626 17.5958 10.5332 17.5331 10.2499 17.2498L7.49989 14.4998H4.69989C4.43322 14.4998 4.21655 14.4125 4.04989 14.2378C3.88322 14.0625 3.79989 13.8498 3.79989 13.5998V10.3998C3.79989 10.1498 3.88322 9.93714 4.04989 9.7618C4.21655 9.58714 4.43322 9.4998 4.69989 9.4998H6.82489L2.52489 5.1998C2.39155 5.0498 2.32055 4.87047 2.31189 4.6618C2.30389 4.4538 2.37489 4.2748 2.52489 4.1248C2.67489 3.99147 2.84989 3.9248 3.04989 3.9248C3.24989 3.9248 3.42489 3.99147 3.57489 4.1248L19.9999 20.5498C20.1332 20.6998 20.2042 20.8788 20.2129 21.0868C20.2209 21.2955 20.1499 21.4665 19.9999 21.5998C19.8499 21.7498 19.6749 21.8248 19.4749 21.8248C19.2749 21.8248 19.0999 21.7498 18.9499 21.5998ZM15.1999 4.1748C16.7832 4.84147 18.0582 5.8748 19.0249 7.2748C19.9916 8.6748 20.4749 10.2415 20.4749 11.9748C20.4749 12.8581 20.3459 13.6998 20.0879 14.4998C19.8292 15.2998 19.4582 16.0415 18.9749 16.7248L17.8999 15.6498C18.2499 15.1165 18.5166 14.5371 18.6999 13.9118C18.8832 13.2871 18.9749 12.6415 18.9749 11.9748C18.9749 10.5415 18.5749 9.24547 17.7749 8.0868C16.9749 6.9288 15.9166 6.08314 14.5999 5.5498C14.4666 5.48314 14.3626 5.39547 14.2879 5.2868C14.2126 5.1788 14.1749 5.05814 14.1749 4.9248C14.1749 4.64147 14.2832 4.42047 14.4999 4.2618C14.7166 4.1038 14.9499 4.0748 15.1999 4.1748ZM15.9249 13.6748L14.1749 11.9248V8.2998C14.8416 8.66647 15.3626 9.18314 15.7379 9.8498C16.1126 10.5165 16.2999 11.2331 16.2999 11.9998C16.2999 12.2998 16.2666 12.5871 16.1999 12.8618C16.1332 13.1371 16.0416 13.4081 15.9249 13.6748ZM11.7999 9.5248L9.62489 7.3748L10.2499 6.7498C10.5332 6.46647 10.8626 6.4038 11.2379 6.5618C11.6126 6.72047 11.7999 6.9998 11.7999 7.3998V9.5248ZM10.2999 15.1498V12.9498L8.32489 10.9998H5.29989V12.9998H8.14989L10.2999 15.1498Z" fill="currentColor"/>
</svg>
