<svg width="24" height="24" viewBox="0 0 24 24" fill="none" xmlns="http://www.w3.org/2000/svg">
	<path d="M11.7826,3.40251 C11.8784,3.23371 12.1216,3.23371 12.2174,3.40251 L21,18.8766 C21.0946,19.0433 20.9742,19.25 20.7826,19.25 L3.21741,19.25 C3.02577,19.25 2.90539,19.0433 2.99998,18.8766 L11.7826,3.40251 Z M13.5219,2.6621 C12.8513,1.48051 11.1487,1.48051 10.478,2.6621 L1.69546,18.1362 C1.03332,19.3028 1.87598,20.75 3.21741,20.75 L20.7826,20.75 C22.124,20.75 22.9667,19.3028 22.3045,18.1362 L13.5219,2.6621 Z M11,8 L13,8 L13,13.5 L11,13.5 L11,8 Z M11,15 L13,15 L13,17 L11,17 L11,15 Z" fill="currentColor"/>
</svg>
