<svg width="131" height="23" viewBox="0 0 131 23" fill="none" xmlns="http://www.w3.org/2000/svg">
<path d="M0.482422 20.5235V0H6.32204V2.24538H3.29319V18.2862H6.32204V20.5235H0.482422Z" fill="#F15035"/>
<path d="M7.06375 1.995H10.448L14.4945 9.31269H14.6561L18.7026 1.995H22.0868L16.0695 12.3658V18.5365H13.0811V12.3658L7.06375 1.995Z" fill="#F15035"/>
<path d="M26.8145 18.7788C25.603 18.7788 24.553 18.5123 23.6645 17.9792C22.776 17.4462 22.0868 16.7004 21.5968 15.7419C21.1122 14.7835 20.8699 13.6635 20.8699 12.3819C20.8699 11.1004 21.1122 9.97769 21.5968 9.01385C22.0868 8.05 22.776 7.30154 23.6645 6.76846C24.553 6.23538 25.603 5.96885 26.8145 5.96885C28.026 5.96885 29.076 6.23538 29.9645 6.76846C30.853 7.30154 31.5395 8.05 32.0241 9.01385C32.5141 9.97769 32.7591 11.1004 32.7591 12.3819C32.7591 13.6635 32.5141 14.7835 32.0241 15.7419C31.5395 16.7004 30.853 17.4462 29.9645 17.9792C29.076 18.5123 28.026 18.7788 26.8145 18.7788ZM26.8306 16.4365C27.4876 16.4365 28.0368 16.2562 28.4783 15.8954C28.9199 15.5292 29.2483 15.0392 29.4637 14.4254C29.6845 13.8115 29.7949 13.1277 29.7949 12.3738C29.7949 11.6146 29.6845 10.9281 29.4637 10.3142C29.2483 9.695 28.9199 9.20231 28.4783 8.83615C28.0368 8.47 27.4876 8.28692 26.8306 8.28692C26.1576 8.28692 25.5976 8.47 25.1506 8.83615C24.7091 9.20231 24.378 9.695 24.1572 10.3142C23.9418 10.9281 23.8341 11.6146 23.8341 12.3738C23.8341 13.1277 23.9418 13.8115 24.1572 14.4254C24.378 15.0392 24.7091 15.5292 25.1506 15.8954C25.5976 16.2562 26.1576 16.4365 26.8306 16.4365Z" fill="#F15035"/>
<path d="M42.7812 13.3188V6.13038H45.705V18.5365H42.87V16.3315H42.7408C42.4608 17.0262 42.0004 17.5942 41.3597 18.0358C40.7243 18.4773 39.9408 18.6981 39.0093 18.6981C38.1962 18.6981 37.4774 18.5177 36.8527 18.1569C36.2335 17.7908 35.7489 17.2604 35.3989 16.5658C35.0489 15.8658 34.8739 15.0204 34.8739 14.0296V6.13038H37.7977V13.5773C37.7977 14.3635 38.0131 14.9881 38.4439 15.4512C38.8747 15.9142 39.44 16.1458 40.14 16.1458C40.5708 16.1458 40.9881 16.0408 41.392 15.8308C41.7958 15.6208 42.127 15.3085 42.3854 14.8938C42.6493 14.4738 42.7812 13.9488 42.7812 13.3188Z" fill="#F15035"/>
<path d="M48.3448 18.5365V6.13038H51.1798V8.19808H51.3091C51.5352 7.48192 51.9229 6.93 52.4721 6.54231C53.0268 6.14923 53.6594 5.95269 54.3702 5.95269C54.5318 5.95269 54.7121 5.96077 54.9114 5.97692C55.116 5.98769 55.2856 6.00654 55.4202 6.03346V8.72308C55.2964 8.68 55.0998 8.64231 54.8306 8.61C54.5668 8.57231 54.311 8.55346 54.0633 8.55346C53.5302 8.55346 53.051 8.66923 52.6256 8.90077C52.2056 9.12692 51.8744 9.44192 51.6321 9.84577C51.3898 10.2496 51.2687 10.7154 51.2687 11.2431V18.5365H48.3448Z" fill="#F15035"/>
<path d="M62.4 18.5365V1.995H68.7323C69.9277 1.995 70.9211 2.18346 71.7127 2.56038C72.5096 2.93192 73.1046 3.44077 73.4977 4.08692C73.8961 4.73308 74.0954 5.46538 74.0954 6.28385C74.0954 6.95692 73.9661 7.53308 73.7077 8.01231C73.4492 8.48615 73.1019 8.87115 72.6657 9.16731C72.2296 9.46346 71.7423 9.67615 71.2038 9.80538V9.96692C71.7907 9.99923 72.3534 10.1796 72.8919 10.5081C73.4358 10.8312 73.88 11.2888 74.2246 11.8812C74.5692 12.4735 74.7415 13.1896 74.7415 14.0296C74.7415 14.8858 74.5342 15.6558 74.1196 16.3396C73.705 17.0181 73.0804 17.5538 72.2458 17.9469C71.4111 18.34 70.3611 18.5365 69.0957 18.5365H62.4ZM65.3965 16.0327H68.6192C69.7069 16.0327 70.4904 15.8254 70.9696 15.4108C71.4542 14.9908 71.6965 14.4523 71.6965 13.7954C71.6965 13.3054 71.5754 12.8638 71.3331 12.4708C71.0908 12.0723 70.7461 11.76 70.2992 11.5338C69.8523 11.3023 69.3192 11.1865 68.7 11.1865H65.3965V16.0327ZM65.3965 9.03H68.3607C68.8777 9.03 69.3434 8.93577 69.7581 8.74731C70.1727 8.55346 70.4984 8.28154 70.7354 7.93154C70.9777 7.57615 71.0988 7.15615 71.0988 6.67154C71.0988 6.03077 70.8727 5.50308 70.4204 5.08846C69.9734 4.67385 69.3084 4.46654 68.4254 4.46654H65.3965V9.03Z" fill="#F15035"/>
<path d="M76.8523 18.5365V6.13038H79.6873V8.19808H79.8165C80.0426 7.48192 80.4303 6.93 80.9796 6.54231C81.5342 6.14923 82.1669 5.95269 82.8776 5.95269C83.0392 5.95269 83.2196 5.96077 83.4188 5.97692C83.6234 5.98769 83.793 6.00654 83.9277 6.03346V8.72308C83.8038 8.68 83.6073 8.64231 83.338 8.61C83.0742 8.57231 82.8184 8.55346 82.5707 8.55346C82.0377 8.55346 81.5584 8.66923 81.133 8.90077C80.713 9.12692 80.3819 9.44192 80.1396 9.84577C79.8973 10.2496 79.7761 10.7154 79.7761 11.2431V18.5365H76.8523Z" fill="#F15035"/>
<path d="M88.8512 18.7869C88.065 18.7869 87.357 18.6469 86.727 18.3669C86.1023 18.0815 85.607 17.6615 85.2408 17.1069C84.88 16.5523 84.6996 15.8685 84.6996 15.0554C84.6996 14.3554 84.8289 13.7765 85.0873 13.3188C85.3458 12.8612 85.6985 12.495 86.1454 12.2204C86.5923 11.9458 87.0958 11.7385 87.6558 11.5985C88.2212 11.4531 88.8054 11.3481 89.4085 11.2835C90.1354 11.2081 90.725 11.1408 91.1773 11.0815C91.6296 11.0169 91.9581 10.92 92.1627 10.7908C92.3727 10.6562 92.4777 10.4488 92.4777 10.1688V10.1204C92.4777 9.51192 92.2973 9.04077 91.9366 8.70692C91.5758 8.37308 91.0562 8.20615 90.3777 8.20615C89.6616 8.20615 89.0935 8.36231 88.6735 8.67461C88.2589 8.98692 87.9789 9.35577 87.8335 9.78115L85.1035 9.39346C85.3189 8.63962 85.6743 8.00961 86.1696 7.50346C86.665 6.99192 87.2708 6.60961 87.987 6.35654C88.7031 6.09808 89.4946 5.96885 90.3616 5.96885C90.9593 5.96885 91.5543 6.03885 92.1466 6.17885C92.7389 6.31885 93.28 6.55038 93.77 6.87346C94.26 7.19115 94.6531 7.62462 94.9493 8.17385C95.2508 8.72308 95.4016 9.40961 95.4016 10.2335V18.5365H92.5908V16.8323H92.4939C92.3162 17.1769 92.0658 17.5 91.7427 17.8015C91.425 18.0977 91.0239 18.3373 90.5393 18.5204C90.06 18.6981 89.4973 18.7869 88.8512 18.7869ZM89.6104 16.6385C90.1973 16.6385 90.7062 16.5227 91.137 16.2912C91.5677 16.0542 91.8989 15.7419 92.1304 15.3542C92.3673 14.9665 92.4858 14.5438 92.4858 14.0862V12.6242C92.3943 12.6996 92.2381 12.7696 92.0173 12.8342C91.802 12.8988 91.5596 12.9554 91.2904 13.0038C91.0212 13.0523 90.7546 13.0954 90.4908 13.1331C90.227 13.1708 89.9981 13.2031 89.8043 13.23C89.3681 13.2892 88.9777 13.3862 88.6331 13.5208C88.2885 13.6554 88.0166 13.8438 87.8173 14.0862C87.6181 14.3231 87.5185 14.63 87.5185 15.0069C87.5185 15.5454 87.715 15.9519 88.1081 16.2265C88.5012 16.5012 89.002 16.6385 89.6104 16.6385Z" fill="#F15035"/>
<path d="M100.899 11.2673V18.5365H97.9747V6.13038H100.769V8.23846H100.915C101.2 7.54385 101.655 6.99192 102.28 6.58269C102.91 6.17346 103.688 5.96885 104.614 5.96885C105.47 5.96885 106.216 6.15192 106.851 6.51808C107.492 6.88423 107.987 7.41462 108.337 8.10923C108.693 8.80385 108.868 9.64654 108.862 10.6373V18.5365H105.939V11.0896C105.939 10.2604 105.723 9.61154 105.292 9.14308C104.867 8.67461 104.277 8.44038 103.524 8.44038C103.012 8.44038 102.557 8.55346 102.159 8.77962C101.765 9.00038 101.456 9.32077 101.23 9.74077C101.009 10.1608 100.899 10.6696 100.899 11.2673Z" fill="#F15035"/>
<path d="M116.072 18.7546C115.097 18.7546 114.225 18.5042 113.455 18.0035C112.685 17.5027 112.076 16.7758 111.629 15.8227C111.182 14.8696 110.959 13.7119 110.959 12.3496C110.959 10.9712 111.185 9.80808 111.637 8.86038C112.095 7.90731 112.712 7.18846 113.487 6.70385C114.262 6.21385 115.127 5.96885 116.08 5.96885C116.807 5.96885 117.404 6.09269 117.873 6.34038C118.341 6.58269 118.713 6.87615 118.987 7.22077C119.262 7.56 119.475 7.88038 119.626 8.18192H119.747V1.995H122.679V18.5365H119.803V16.5819H119.626C119.475 16.8835 119.257 17.2038 118.971 17.5431C118.686 17.8769 118.309 18.1623 117.841 18.3992C117.372 18.6362 116.782 18.7546 116.072 18.7546ZM116.887 16.3558C117.507 16.3558 118.034 16.1888 118.471 15.855C118.907 15.5158 119.238 15.0446 119.464 14.4415C119.69 13.8385 119.803 13.1358 119.803 12.3335C119.803 11.5312 119.69 10.8338 119.464 10.2415C119.243 9.64923 118.915 9.18885 118.479 8.86038C118.048 8.53192 117.517 8.36769 116.887 8.36769C116.236 8.36769 115.692 8.53731 115.256 8.87654C114.82 9.21577 114.491 9.68423 114.271 10.2819C114.05 10.8796 113.939 11.5635 113.939 12.3335C113.939 13.1088 114.05 13.8008 114.271 14.4092C114.497 15.0123 114.828 15.4888 115.264 15.8388C115.706 16.1835 116.247 16.3558 116.887 16.3558Z" fill="#F15035"/>
<path d="M130.371 1.52654V22.05H124.531V19.8127H127.56V3.77192H124.531V1.52654H130.371Z" fill="#F15035"/>
</svg>
