<svg width="100%" height="100%" viewBox="0 0 40 40" xmlns="http://www.w3.org/2000/svg">
  <g fill="none" fill-rule="evenodd">
    <circle fill="#564F6B" cx="20" cy="20" r="20"/>
    <g fill="#FFF">
      <path fill="none" d="M4 4h32v32H4z"/>
      <path d="M21.778 23c5.409 0 9.889 3.36 9.889 7.667a1 1 0 01-2 0c0-3.057-3.48-5.667-7.89-5.667h-3.555c-4.409 0-7.889 2.61-7.889 5.667a1 1 0 01-2 0c0-4.307 4.48-7.667 9.89-7.667zM20 8.333c1.198 0 2.311.278 3.268.81a5.805 5.805 0 012.255 2.256c.533.956.81 2.07.81 3.268V16c0 1.198-.277 2.311-.81 3.268a5.805 5.805 0 01-2.255 2.255c-.957.533-2.07.81-3.268.81s-2.311-.277-3.268-.81a5.805 5.805 0 01-2.255-2.255c-.533-.957-.81-2.07-.81-3.268v-1.333c0-1.199.277-2.312.81-3.268a5.805 5.805 0 012.255-2.255c.957-.533 2.07-.81 3.268-.81zm0 2c-.864 0-1.641.194-2.293.558a3.805 3.805 0 00-1.483 1.482c-.364.652-.557 1.43-.557 2.294V16c0 .864.193 1.641.557 2.293.35.628.855 1.133 1.483 1.483.652.364 1.429.557 2.293.557.864 0 1.641-.193 2.293-.557a3.805 3.805 0 001.483-1.483c.364-.652.557-1.429.557-2.293v-1.333c0-.864-.193-1.642-.557-2.294a3.805 3.805 0 00-1.483-1.482c-.652-.364-1.429-.558-2.293-.558z"/>
    </g>
  </g>
</svg>
